<?xml version="1.0" standalone="no"?>
<!DOCTYPE svg PUBLIC "-//W3C//DTD SVG 20010904//EN"
 "http://www.w3.org/TR/2001/REC-SVG-20010904/DTD/svg10.dtd">
<svg version="1.0" xmlns="http://www.w3.org/2000/svg"
 width="512.000000pt" height="512.000000pt" viewBox="0 0 512.000000 512.000000"
 preserveAspectRatio="xMidYMid meet">
<metadata>
Created by potrace 1.11, written by Peter Selinger 2001-2013
</metadata>
<g transform="translate(0.000000,512.000000) scale(0.100000,-0.100000)"
fill="#000000" stroke="none">
<path d="M2330 5110 c-494 -48 -950 -230 -1350 -538 -195 -150 -448 -432 -594
-662 -63 -99 -186 -351 -230 -471 -151 -412 -192 -882 -116 -1319 155 -893
787 -1649 1641 -1964 552 -203 1205 -204 1755 -1 1041 384 1722 1395 1680
2495 -14 374 -95 698 -261 1035 -132 269 -269 460 -489 681 -221 220 -412 357
-681 489 -246 121 -474 193 -740 235 -147 23 -475 34 -615 20z m570 -185 c678
-100 1284 -488 1662 -1065 81 -124 192 -345 243 -484 228 -622 181 -1327 -126
-1916 -109 -208 -278 -439 -432 -589 l-55 -54 -134 89 c-454 303 -954 454
-1501 454 -571 0 -1084 -160 -1552 -484 l-80 -55 -54 52 c-87 85 -218 244
-296 362 -377 565 -496 1255 -330 1911 44 173 91 298 175 470 365 741 1083
1237 1915 1323 127 14 429 6 565 -14z m-43 -3750 c416 -52 775 -185 1121 -417
l84 -56 -76 -56 c-336 -248 -715 -401 -1136 -457 -136 -18 -469 -16 -607 4
-420 62 -771 204 -1095 444 -49 36 -88 67 -88 69 0 6 152 106 239 156 276 160
605 269 944 313 144 18 466 18 614 0z"/>
<path d="M2518 4764 c-37 -20 -51 -77 -46 -188 4 -82 6 -91 32 -112 35 -30 77
-30 112 0 26 21 28 30 32 112 5 114 -9 169 -48 189 -36 18 -47 18 -82 -1z"/>
<path d="M1435 4478 c-59 -32 -59 -79 1 -183 74 -130 117 -153 175 -96 41 41
37 69 -22 172 -65 115 -98 138 -154 107z"/>
<path d="M3614 4476 c-38 -17 -134 -179 -134 -226 0 -41 39 -80 80 -80 41 0
75 34 128 131 48 87 52 117 20 153 -30 32 -56 38 -94 22z"/>
<path d="M4380 3717 c-169 -88 -197 -114 -186 -172 8 -41 43 -68 85 -67 35 1
196 95 217 127 21 32 10 78 -23 105 -30 23 -58 25 -93 7z"/>
<path d="M620 3662 c-35 -35 -38 -69 -10 -104 29 -37 176 -118 214 -118 40 0
72 22 80 56 13 50 -11 81 -103 135 -112 66 -140 71 -181 31z"/>
<path d="M3125 3310 l-370 -370 -60 25 c-122 50 -267 26 -362 -60 -123 -110
-147 -285 -60 -427 130 -213 445 -213 574 0 55 91 68 196 34 282 l-18 45 374
376 c338 340 373 378 373 408 0 23 -9 41 -29 62 -59 58 -49 65 -456 -341z
m-485 -505 c83 -43 114 -147 67 -229 -36 -64 -68 -81 -147 -81 -79 0 -110 17
-148 81 -18 31 -22 50 -19 92 9 123 136 193 247 137z"/>
<path d="M350 2632 c-66 -33 -66 -111 0 -144 49 -25 191 -25 240 0 41 20 58
59 44 100 -15 43 -65 62 -164 62 -61 0 -95 -5 -120 -18z"/>
<path d="M4530 2632 c-41 -20 -58 -59 -44 -99 15 -44 65 -63 164 -63 99 0 149
19 164 63 14 40 -3 79 -44 99 -25 13 -59 18 -120 18 -61 0 -95 -5 -120 -18z"/>
<path d="M760 1627 c-96 -50 -162 -92 -175 -110 -22 -31 -18 -72 9 -103 35
-42 75 -36 177 24 101 60 111 70 112 118 2 64 -63 102 -123 71z"/>
<path d="M4247 1579 c-37 -33 -44 -77 -18 -110 30 -39 179 -121 219 -121 41 0
70 25 78 67 9 49 -8 69 -104 125 -107 64 -139 71 -175 39z"/>
</g>
</svg>
